<svg width="59" height="60" viewBox="0 0 59 60" fill="none" xmlns="http://www.w3.org/2000/svg">
<path d="M34.5707 9.06473C33.6105 10.3799 32.9097 11.8753 32.5092 13.468C32.0205 15.412 31.9938 17.4463 32.4321 19.4026L32.4448 19.4602L32.4711 19.5139L35.0707 24.8196L35.0971 24.8733L35.1342 24.9182C35.3323 25.158 35.5454 25.4045 35.7807 25.6438C37.7461 27.6965 40.3395 28.9895 43.1186 29.3274C41.891 30.4883 40.4184 31.3505 38.81 31.8411C37.0432 32.38 35.1708 32.4557 33.3676 32.0618L32.5532 31.8831L32.7797 32.6858C33.4432 35.029 33.4842 37.5098 32.8979 39.8743C32.3115 42.2388 31.1193 44.4021 29.4438 46.1438C28.2297 47.4048 26.7807 48.4067 25.1821 49.0901C23.5836 49.7735 21.8667 50.1253 20.1332 50.1253C18.3999 50.1252 16.6837 49.7734 15.0854 49.0901C13.5867 48.4494 12.2195 47.5287 11.0541 46.3772L10.8237 46.1438L10.8198 46.1399C10.7176 46.036 10.6137 45.9215 10.5121 45.8089C8.1707 43.211 6.89657 39.7974 6.95453 36.2708C7.01253 32.7442 8.39836 29.3763 10.8237 26.8596V26.8587C12.4786 25.1378 14.5625 23.9087 16.851 23.303C19.1396 22.6973 21.5479 22.7376 23.8159 23.4192L24.6205 23.6614L24.4487 22.8391C24.0613 20.9777 24.1315 19.0472 24.6528 17.22C25.1739 15.3934 26.129 13.7255 27.434 12.3655L27.435 12.3665C28.4976 11.268 29.7721 10.406 31.1782 9.83524C32.2634 9.39472 33.4091 9.13625 34.5707 9.06473Z" stroke="white"/>
<path d="M19.4341 41.8268L16.2612 45.1022L11.8003 40.4948L14.9722 37.2184L19.4341 41.8268Z" stroke="white"/>
<path d="M47.1576 11.8588L35.1605 24.2523L24.2914 35.4838L21.7103 38.1547L19.4886 40.4457L16.3119 37.1625L18.557 34.8481L21.1381 32.1859V32.185L33.2797 19.642L43.9828 8.5834L47.1576 11.8588Z" stroke="white"/>
<path d="M25.881 37.8308L23.9982 39.7751L16.9572 32.5037L18.84 30.5593L25.881 37.8308Z" stroke="white"/>
<path d="M55.0537 5.03845L52.6484 7.5199L53.0078 7.86755L52.6484 8.21521C52.9005 8.47604 53.0439 8.82849 53.0449 9.19763C53.0459 9.56658 52.9047 9.91974 52.6543 10.182C52.5325 10.309 52.3871 10.4095 52.2275 10.4779C52.068 10.5463 51.8972 10.5814 51.7246 10.5814C51.5521 10.5814 51.3812 10.5463 51.2217 10.4779C51.0621 10.4095 50.9167 10.309 50.7949 10.182C50.6443 10.0238 50.533 9.83019 50.4707 9.61755L50.2998 9.03552L49.7607 9.31384L47.3096 10.5795L45.3252 8.53064L48.71 5.03845H55.0537Z" stroke="white"/>
<path d="M50.2812 50.625V46.875C50.2812 46.5076 50.4248 46.1567 50.6777 45.8994C50.9304 45.6425 51.2714 45.5 51.625 45.5H52.9688V52H51.625C51.2714 52 50.9304 51.8575 50.6777 51.6006C50.4248 51.3433 50.2812 50.9924 50.2812 50.625Z" stroke="white"/>
<mask id="path-7-inside-1_2_903" fill="white">
<path d="M54.3906 45C54.3906 44.7514 54.2935 44.5129 54.1206 44.3371C53.9477 44.1613 53.7132 44.0625 53.4688 44.0625H51.625C50.8915 44.0625 50.1881 44.3588 49.6694 44.8863C49.1508 45.4137 48.8594 46.1291 48.8594 46.875V47.8125H47.0156C45.7936 47.814 44.622 48.3083 43.7579 49.1871C42.8938 50.0658 42.4077 51.2573 42.4062 52.5V53.4375C42.4062 54.1834 42.1149 54.8988 41.5962 55.4262C41.0776 55.9537 40.3741 56.25 39.6406 56.25H5.07031C4.70357 56.25 4.35184 56.1018 4.09252 55.8381C3.83319 55.5744 3.6875 55.2167 3.6875 54.8438C3.6875 54.4708 3.83319 54.1131 4.09252 53.8494C4.35184 53.5857 4.70357 53.4375 5.07031 53.4375H6.45312C7.67516 53.436 8.84672 52.9417 9.71083 52.0629C10.5749 51.1842 11.061 49.9927 11.0625 48.75V48.2934C13.6233 50.4105 16.8234 51.565 20.1236 51.5625H20.1301C22.0547 51.5653 23.9605 51.176 25.7349 50.4178C27.5093 49.6596 29.1164 48.5478 30.4615 47.1478C32.1444 45.3966 33.3875 43.2587 34.0854 40.9153C34.7833 38.5718 34.9155 36.0918 34.4707 33.6853C36.306 33.8683 38.1583 33.6311 39.8916 32.9911C41.625 32.3511 43.1955 31.3246 44.4878 29.9869C44.58 29.8931 44.6612 29.7994 44.745 29.7056L44.8787 29.5528C44.9991 29.421 45.0796 29.2568 45.1107 29.0797C45.1419 28.9027 45.1222 28.7203 45.0542 28.5542C44.9862 28.3882 44.8726 28.2456 44.7271 28.1434C44.5816 28.0412 44.4102 27.9837 44.2334 27.9778C41.4199 27.8854 38.7515 26.6862 36.7902 24.6328V24.6328L48.5118 12.5175C48.6401 12.3838 48.7261 12.2143 48.759 12.0305C48.7918 11.8468 48.77 11.6573 48.6962 11.4862L49.6181 11.01C49.6697 11.0738 49.7232 11.1347 49.7794 11.1975C50.0329 11.4609 50.3357 11.6701 50.6699 11.8126C51.0041 11.9551 51.3631 12.028 51.7255 12.0272V12.0272C52.088 12.028 52.4471 11.9549 52.7814 11.8124C53.1158 11.67 53.4188 11.4609 53.6725 11.1975C54.072 10.7811 54.3368 10.2505 54.4314 9.67677C54.526 9.10303 54.4458 8.5136 54.2016 7.9875L56.8954 5.20313C57.0255 5.07155 57.114 4.9035 57.1496 4.72046C57.1853 4.53742 57.1664 4.34774 57.0954 4.17568C57.0244 4.00362 56.9046 3.85701 56.7512 3.75462C56.5978 3.65224 56.4178 3.59872 56.2344 3.60094H55.8656V1.875H54.0219V3.60094H53.2844V1.875H51.4406V3.60094H50.7031V1.875H48.8594V3.60094H48.4906C48.3683 3.6012 48.2473 3.62621 48.1346 3.67449C48.022 3.72278 47.9198 3.79338 47.8343 3.88219L44.628 7.19906C44.4561 7.02621 44.2244 6.92891 43.9827 6.92812C43.8604 6.92839 43.7394 6.9534 43.6267 7.00168C43.514 7.04997 43.4119 7.12057 43.3263 7.20938L33.5867 17.2697C33.4943 15.8045 33.6873 14.3353 34.1544 12.9461C34.6216 11.5569 35.3537 10.2752 36.309 9.17438C36.426 9.04122 36.5032 8.87684 36.5315 8.70058C36.5598 8.52431 36.538 8.3435 36.4686 8.17942C36.3993 8.01533 36.2853 7.87481 36.1401 7.77437C35.9949 7.67394 35.8244 7.61778 35.6489 7.6125C33.9386 7.54969 32.2343 7.8508 30.6451 8.49655C29.0559 9.1423 27.6168 10.1185 26.42 11.3625C25.1157 12.7147 24.1195 14.3419 23.502 16.129C22.8846 17.9161 22.6609 19.8193 22.8468 21.7041C20.5051 21.2493 18.0892 21.3904 15.8141 22.1148C13.539 22.8392 11.4754 24.1245 9.80691 25.8562C7.16109 28.5805 5.62922 32.2236 5.52007 36.051C5.41093 39.8784 6.73263 43.6056 9.21875 46.4813V48.75C9.21875 49.4959 8.92737 50.2113 8.40872 50.7387C7.89006 51.2662 7.18661 51.5625 6.45312 51.5625H5.07031C4.21457 51.5625 3.39389 51.9082 2.78879 52.5236C2.18369 53.1389 1.84375 53.9735 1.84375 54.8438C1.84375 55.714 2.18369 56.5486 2.78879 57.1639C3.39389 57.7793 4.21457 58.125 5.07031 58.125H39.6406C40.8627 58.1235 42.0342 57.6292 42.8983 56.7504C43.7624 55.8717 44.2485 54.6802 44.25 53.4375V52.5C44.25 51.7541 44.5414 51.0387 45.06 50.5113C45.5787 49.9838 46.2821 49.6875 47.0156 49.6875H48.8594V50.625C48.8594 51.3709 49.1508 52.0863 49.6694 52.6137C50.1881 53.1412 50.8915 53.4375 51.625 53.4375H53.4688C53.7132 53.4375 53.9477 53.3387 54.1206 53.1629C54.2935 52.9871 54.3906 52.7486 54.3906 52.5V51.5625H57.1562V49.6875H54.3906V47.8125H57.1562V45.9375H54.3906V45ZM48.8833 5.47594H54.0329L52.3542 7.21031C52.1853 7.38556 52.0907 7.62117 52.0907 7.86656C52.0907 8.11196 52.1853 8.34757 52.3542 8.52281C52.5272 8.70271 52.624 8.94433 52.624 9.19594C52.624 9.44755 52.5272 9.68916 52.3542 9.86906C52.272 9.95531 52.1736 10.0238 52.0647 10.0705C51.9559 10.1172 51.839 10.1412 51.7209 10.1409V10.1409C51.6029 10.1411 51.4861 10.1171 51.3775 10.0704C51.2688 10.0237 51.1705 9.95523 51.0885 9.86906C50.986 9.75977 50.9111 9.62695 50.87 9.48188C50.8307 9.35114 50.7638 9.23072 50.6739 9.12905C50.5841 9.02739 50.4734 8.94695 50.3497 8.89335C50.2261 8.83976 50.0924 8.81432 49.958 8.81882C49.8237 8.82331 49.6919 8.85763 49.572 8.91937L47.3945 10.0444L45.9241 8.53125L48.8833 5.47594ZM43.9827 9.20156L46.5519 11.8547L46.5602 11.8603L24.6454 34.5L22.0697 31.8413L43.9827 9.20156ZM18.6219 38.9344L16.909 37.1634L18.1941 35.8378L20.7754 38.5031L19.4894 39.8297L18.6219 38.9344ZM18.8357 41.8266L16.2619 44.4853L12.3974 40.4944L14.9722 37.8356L17.688 40.6406L18.8311 41.8228L18.8357 41.8266ZM17.5543 32.505L18.8394 31.1775L25.2824 37.8337L23.9982 39.1594L17.5543 32.505ZM11.1197 27.1697C12.7219 25.5061 14.7391 24.3172 16.955 23.7306C19.171 23.144 21.5022 23.1817 23.6986 23.8397C23.8512 23.8854 24.0129 23.8901 24.1678 23.8535C24.3227 23.8168 24.4657 23.74 24.5828 23.6305C24.6999 23.5211 24.7872 23.3827 24.8361 23.2287C24.885 23.0748 24.894 22.9107 24.862 22.7522C24.4876 20.9622 24.5536 19.1058 25.0542 17.348C25.5549 15.5902 26.4746 13.9853 27.7318 12.6759C29.3325 11.0123 31.4267 9.93014 33.6918 9.59625C31.9688 12.3886 31.3403 15.7374 31.931 18.9787L20.7763 30.5044L19.4967 29.1844C19.3205 29.0116 19.0852 28.9151 18.8404 28.9151C18.5955 28.9151 18.3603 29.0116 18.184 29.1844L15.6027 31.8478C15.4338 32.0231 15.3392 32.2587 15.3392 32.5041C15.3392 32.7495 15.4338 32.9851 15.6027 33.1603L16.9017 34.5L15.611 35.8294C15.4371 35.6567 15.203 35.5609 14.9599 35.5628C14.7168 35.5648 14.4843 35.6643 14.313 35.8397L10.4412 39.8344C10.2722 40.0096 10.1776 40.2452 10.1776 40.4906C10.1776 40.736 10.2722 40.9716 10.4412 41.1469L15.599 46.4737C15.6848 46.5623 15.7871 46.6327 15.8998 46.6807C16.0126 46.7287 16.1336 46.7534 16.2559 46.7534C16.3781 46.7534 16.4992 46.7287 16.6119 46.6807C16.7247 46.6327 16.8269 46.5623 16.9127 46.4737L20.7846 42.4781C20.9535 42.3029 21.0481 42.0673 21.0481 41.8219C21.0481 41.5765 20.9535 41.3409 20.7846 41.1656L22.0697 39.8438L23.341 41.1563C23.4267 41.2448 23.529 41.3152 23.6417 41.3632C23.7545 41.4112 23.8755 41.4359 23.9978 41.4359C24.12 41.4359 24.2411 41.4112 24.3538 41.3632C24.4666 41.3152 24.5688 41.2448 24.6546 41.1563L27.2359 38.4928C27.4048 38.3176 27.4994 38.082 27.4994 37.8366C27.4994 37.5912 27.4048 37.3556 27.2359 37.1803L25.9406 35.8434L35.4922 25.9688C37.2907 27.8403 39.6051 29.1132 42.1297 29.6194C40.9151 30.5792 39.5087 31.2571 38.0092 31.6055C36.5096 31.9539 34.9532 31.9643 33.4493 31.6359C33.2939 31.6028 33.1327 31.611 32.9814 31.6598C32.83 31.7086 32.6936 31.7963 32.5854 31.9145C32.4772 32.0327 32.4008 32.1773 32.3637 32.3343C32.3265 32.4913 32.3299 32.6553 32.3735 32.8106C33.0136 35.0782 33.0522 37.4777 32.4855 39.7654C31.9189 42.0531 30.767 44.1476 29.1469 45.8362C27.9726 47.0574 26.5698 48.0273 25.0213 48.6887C23.4727 49.3501 21.8097 49.6897 20.1301 49.6875H20.1245C18.4454 49.6887 16.7831 49.3478 15.2357 48.6849C13.6883 48.022 12.2872 47.0505 11.115 45.8278C11.0146 45.7247 10.9132 45.6131 10.8182 45.5081C8.53811 42.9993 7.2971 39.693 7.35342 36.2772C7.40974 32.8615 8.75906 29.5994 11.1206 27.1697H11.1197ZM52.5469 51.5625H51.625C51.3805 51.5625 51.146 51.4637 50.9731 51.2879C50.8003 51.1121 50.7031 50.8736 50.7031 50.625V46.875C50.7031 46.6264 50.8003 46.3879 50.9731 46.2121C51.146 46.0363 51.3805 45.9375 51.625 45.9375H52.5469V51.5625Z"/>
</mask>
<path d="M54.3906 45C54.3906 44.7514 54.2935 44.5129 54.1206 44.3371C53.9477 44.1613 53.7132 44.0625 53.4688 44.0625H51.625C50.8915 44.0625 50.1881 44.3588 49.6694 44.8863C49.1508 45.4137 48.8594 46.1291 48.8594 46.875V47.8125H47.0156C45.7936 47.814 44.622 48.3083 43.7579 49.1871C42.8938 50.0658 42.4077 51.2573 42.4062 52.5V53.4375C42.4062 54.1834 42.1149 54.8988 41.5962 55.4262C41.0776 55.9537 40.3741 56.25 39.6406 56.25H5.07031C4.70357 56.25 4.35184 56.1018 4.09252 55.8381C3.83319 55.5744 3.6875 55.2167 3.6875 54.8438C3.6875 54.4708 3.83319 54.1131 4.09252 53.8494C4.35184 53.5857 4.70357 53.4375 5.07031 53.4375H6.45312C7.67516 53.436 8.84672 52.9417 9.71083 52.0629C10.5749 51.1842 11.061 49.9927 11.0625 48.75V48.2934C13.6233 50.4105 16.8234 51.565 20.1236 51.5625H20.1301C22.0547 51.5653 23.9605 51.176 25.7349 50.4178C27.5093 49.6596 29.1164 48.5478 30.4615 47.1478C32.1444 45.3966 33.3875 43.2587 34.0854 40.9153C34.7833 38.5718 34.9155 36.0918 34.4707 33.6853C36.306 33.8683 38.1583 33.6311 39.8916 32.9911C41.625 32.3511 43.1955 31.3246 44.4878 29.9869C44.58 29.8931 44.6612 29.7994 44.745 29.7056L44.8787 29.5528C44.9991 29.421 45.0796 29.2568 45.1107 29.0797C45.1419 28.9027 45.1222 28.7203 45.0542 28.5542C44.9862 28.3882 44.8726 28.2456 44.7271 28.1434C44.5816 28.0412 44.4102 27.9837 44.2334 27.9778C41.4199 27.8854 38.7515 26.6862 36.7902 24.6328V24.6328L48.5118 12.5175C48.6401 12.3838 48.7261 12.2143 48.759 12.0305C48.7918 11.8468 48.77 11.6573 48.6962 11.4862L49.6181 11.01C49.6697 11.0738 49.7232 11.1347 49.7794 11.1975C50.0329 11.4609 50.3357 11.6701 50.6699 11.8126C51.0041 11.9551 51.3631 12.028 51.7255 12.0272V12.0272C52.088 12.028 52.4471 11.9549 52.7814 11.8124C53.1158 11.67 53.4188 11.4609 53.6725 11.1975C54.072 10.7811 54.3368 10.2505 54.4314 9.67677C54.526 9.10303 54.4458 8.5136 54.2016 7.9875L56.8954 5.20313C57.0255 5.07155 57.114 4.9035 57.1496 4.72046C57.1853 4.53742 57.1664 4.34774 57.0954 4.17568C57.0244 4.00362 56.9046 3.85701 56.7512 3.75462C56.5978 3.65224 56.4178 3.59872 56.2344 3.60094H55.8656V1.875H54.0219V3.60094H53.2844V1.875H51.4406V3.60094H50.7031V1.875H48.8594V3.60094H48.4906C48.3683 3.6012 48.2473 3.62621 48.1346 3.67449C48.022 3.72278 47.9198 3.79338 47.8343 3.88219L44.628 7.19906C44.4561 7.02621 44.2244 6.92891 43.9827 6.92812C43.8604 6.92839 43.7394 6.9534 43.6267 7.00168C43.514 7.04997 43.4119 7.12057 43.3263 7.20938L33.5867 17.2697C33.4943 15.8045 33.6873 14.3353 34.1544 12.9461C34.6216 11.5569 35.3537 10.2752 36.309 9.17438C36.426 9.04122 36.5032 8.87684 36.5315 8.70058C36.5598 8.52431 36.538 8.3435 36.4686 8.17942C36.3993 8.01533 36.2853 7.87481 36.1401 7.77437C35.9949 7.67394 35.8244 7.61778 35.6489 7.6125C33.9386 7.54969 32.2343 7.8508 30.6451 8.49655C29.0559 9.1423 27.6168 10.1185 26.42 11.3625C25.1157 12.7147 24.1195 14.3419 23.502 16.129C22.8846 17.9161 22.6609 19.8193 22.8468 21.7041C20.5051 21.2493 18.0892 21.3904 15.8141 22.1148C13.539 22.8392 11.4754 24.1245 9.80691 25.8562C7.16109 28.5805 5.62922 32.2236 5.52007 36.051C5.41093 39.8784 6.73263 43.6056 9.21875 46.4813V48.75C9.21875 49.4959 8.92737 50.2113 8.40872 50.7387C7.89006 51.2662 7.18661 51.5625 6.45312 51.5625H5.07031C4.21457 51.5625 3.39389 51.9082 2.78879 52.5236C2.18369 53.1389 1.84375 53.9735 1.84375 54.8438C1.84375 55.714 2.18369 56.5486 2.78879 57.1639C3.39389 57.7793 4.21457 58.125 5.07031 58.125H39.6406C40.8627 58.1235 42.0342 57.6292 42.8983 56.7504C43.7624 55.8717 44.2485 54.6802 44.25 53.4375V52.5C44.25 51.7541 44.5414 51.0387 45.06 50.5113C45.5787 49.9838 46.2821 49.6875 47.0156 49.6875H48.8594V50.625C48.8594 51.3709 49.1508 52.0863 49.6694 52.6137C50.1881 53.1412 50.8915 53.4375 51.625 53.4375H53.4688C53.7132 53.4375 53.9477 53.3387 54.1206 53.1629C54.2935 52.9871 54.3906 52.7486 54.3906 52.5V51.5625H57.1562V49.6875H54.3906V47.8125H57.1562V45.9375H54.3906V45ZM48.8833 5.47594H54.0329L52.3542 7.21031C52.1853 7.38556 52.0907 7.62117 52.0907 7.86656C52.0907 8.11196 52.1853 8.34757 52.3542 8.52281C52.5272 8.70271 52.624 8.94433 52.624 9.19594C52.624 9.44755 52.5272 9.68916 52.3542 9.86906C52.272 9.95531 52.1736 10.0238 52.0647 10.0705C51.9559 10.1172 51.839 10.1412 51.7209 10.1409V10.1409C51.6029 10.1411 51.4861 10.1171 51.3775 10.0704C51.2688 10.0237 51.1705 9.95523 51.0885 9.86906C50.986 9.75977 50.9111 9.62695 50.87 9.48188C50.8307 9.35114 50.7638 9.23072 50.6739 9.12905C50.5841 9.02739 50.4734 8.94695 50.3497 8.89335C50.2261 8.83976 50.0924 8.81432 49.958 8.81882C49.8237 8.82331 49.6919 8.85763 49.572 8.91937L47.3945 10.0444L45.9241 8.53125L48.8833 5.47594ZM43.9827 9.20156L46.5519 11.8547L46.5602 11.8603L24.6454 34.5L22.0697 31.8413L43.9827 9.20156ZM18.6219 38.9344L16.909 37.1634L18.1941 35.8378L20.7754 38.5031L19.4894 39.8297L18.6219 38.9344ZM18.8357 41.8266L16.2619 44.4853L12.3974 40.4944L14.9722 37.8356L17.688 40.6406L18.8311 41.8228L18.8357 41.8266ZM17.5543 32.505L18.8394 31.1775L25.2824 37.8337L23.9982 39.1594L17.5543 32.505ZM11.1197 27.1697C12.7219 25.5061 14.7391 24.3172 16.955 23.7306C19.171 23.144 21.5022 23.1817 23.6986 23.8397C23.8512 23.8854 24.0129 23.8901 24.1678 23.8535C24.3227 23.8168 24.4657 23.74 24.5828 23.6305C24.6999 23.5211 24.7872 23.3827 24.8361 23.2287C24.885 23.0748 24.894 22.9107 24.862 22.7522C24.4876 20.9622 24.5536 19.1058 25.0542 17.348C25.5549 15.5902 26.4746 13.9853 27.7318 12.6759C29.3325 11.0123 31.4267 9.93014 33.6918 9.59625C31.9688 12.3886 31.3403 15.7374 31.931 18.9787L20.7763 30.5044L19.4967 29.1844C19.3205 29.0116 19.0852 28.9151 18.8404 28.9151C18.5955 28.9151 18.3603 29.0116 18.184 29.1844L15.6027 31.8478C15.4338 32.0231 15.3392 32.2587 15.3392 32.5041C15.3392 32.7495 15.4338 32.9851 15.6027 33.1603L16.9017 34.5L15.611 35.8294C15.4371 35.6567 15.203 35.5609 14.9599 35.5628C14.7168 35.5648 14.4843 35.6643 14.313 35.8397L10.4412 39.8344C10.2722 40.0096 10.1776 40.2452 10.1776 40.4906C10.1776 40.736 10.2722 40.9716 10.4412 41.1469L15.599 46.4737C15.6848 46.5623 15.7871 46.6327 15.8998 46.6807C16.0126 46.7287 16.1336 46.7534 16.2559 46.7534C16.3781 46.7534 16.4992 46.7287 16.6119 46.6807C16.7247 46.6327 16.8269 46.5623 16.9127 46.4737L20.7846 42.4781C20.9535 42.3029 21.0481 42.0673 21.0481 41.8219C21.0481 41.5765 20.9535 41.3409 20.7846 41.1656L22.0697 39.8438L23.341 41.1563C23.4267 41.2448 23.529 41.3152 23.6417 41.3632C23.7545 41.4112 23.8755 41.4359 23.9978 41.4359C24.12 41.4359 24.2411 41.4112 24.3538 41.3632C24.4666 41.3152 24.5688 41.2448 24.6546 41.1563L27.2359 38.4928C27.4048 38.3176 27.4994 38.082 27.4994 37.8366C27.4994 37.5912 27.4048 37.3556 27.2359 37.1803L25.9406 35.8434L35.4922 25.9688C37.2907 27.8403 39.6051 29.1132 42.1297 29.6194C40.9151 30.5792 39.5087 31.2571 38.0092 31.6055C36.5096 31.9539 34.9532 31.9643 33.4493 31.6359C33.2939 31.6028 33.1327 31.611 32.9814 31.6598C32.83 31.7086 32.6936 31.7963 32.5854 31.9145C32.4772 32.0327 32.4008 32.1773 32.3637 32.3343C32.3265 32.4913 32.3299 32.6553 32.3735 32.8106C33.0136 35.0782 33.0522 37.4777 32.4855 39.7654C31.9189 42.0531 30.767 44.1476 29.1469 45.8362C27.9726 47.0574 26.5698 48.0273 25.0213 48.6887C23.4727 49.3501 21.8097 49.6897 20.1301 49.6875H20.1245C18.4454 49.6887 16.7831 49.3478 15.2357 48.6849C13.6883 48.022 12.2872 47.0505 11.115 45.8278C11.0146 45.7247 10.9132 45.6131 10.8182 45.5081C8.53811 42.9993 7.2971 39.693 7.35342 36.2772C7.40974 32.8615 8.75906 29.5994 11.1206 27.1697H11.1197ZM52.5469 51.5625H51.625C51.3805 51.5625 51.146 51.4637 50.9731 51.2879C50.8003 51.1121 50.7031 50.8736 50.7031 50.625V46.875C50.7031 46.6264 50.8003 46.3879 50.9731 46.2121C51.146 46.0363 51.3805 45.9375 51.625 45.9375H52.5469V51.5625Z" stroke="white" stroke-width="2" mask="url(#path-7-inside-1_2_903)"/>
</svg>
