<svg width="59" height="60" viewBox="0 0 59 60" fill="none" xmlns="http://www.w3.org/2000/svg">
<path d="M30.6809 25.4831L25.5184 30.75C26.9682 31.4852 28.1415 32.6827 28.8593 34.1597L34.0218 28.8919L30.6809 25.4831ZM18.1784 33.5016C17.1204 34.585 16.5267 36.05 16.5267 37.5769C16.5267 39.1038 17.1204 40.5688 18.1784 41.6522C18.7011 42.1875 19.3228 42.6123 20.0077 42.9023C20.6925 43.1922 21.427 43.3414 22.1688 43.3414C22.9106 43.3414 23.6451 43.1922 24.3299 42.9023C25.0148 42.6123 25.6364 42.1875 26.1591 41.6522C27.2171 40.5688 27.8109 39.1038 27.8109 37.5769C27.8109 36.05 27.2171 34.585 26.1591 33.5016C25.6359 32.9673 25.014 32.5433 24.3293 32.254C23.6445 31.9648 22.9103 31.8159 22.1688 31.8159C21.4273 31.8159 20.6931 31.9648 20.0083 32.254C19.3236 32.5433 18.7017 32.9673 18.1784 33.5016ZM11.2146 43.5187C11.0382 43.3488 10.8045 43.254 10.5615 43.254C10.3184 43.254 10.0847 43.3488 9.90831 43.5187L9.41603 44.0213C9.24376 44.197 9.14703 44.435 9.14703 44.6831C9.14703 44.9313 9.24376 45.1693 9.41603 45.345L14.5509 50.5847C14.6365 50.672 14.7382 50.7413 14.8502 50.7885C14.9622 50.8358 15.0823 50.8601 15.2036 50.8601C15.3248 50.8601 15.4449 50.8358 15.5569 50.7885C15.6689 50.7413 15.7706 50.672 15.8562 50.5847L16.3494 50.0822C16.5217 49.9065 16.6184 49.6684 16.6184 49.4203C16.6184 49.1722 16.5217 48.9342 16.3494 48.7584L11.2146 43.5187Z" fill="white"/>
<path d="M35.8713 20.1672L30.9826 25.1547L34.3235 28.5644L39.2131 23.5759L35.8713 20.1672Z" fill="white"/>
<path d="M35.9743 29.5566L29.5212 36.1406C29.7519 37.3638 29.6852 38.6259 29.3271 39.8169C28.969 41.008 28.3302 42.0921 27.4663 42.975C26.7724 43.6849 25.9472 44.2483 25.0384 44.6327C24.1296 45.0172 23.1549 45.2151 22.1706 45.2151C21.1863 45.2151 20.2117 45.0172 19.3028 44.6327C18.394 44.2483 17.5689 43.6849 16.8749 42.975C15.4733 41.5396 14.6866 39.5988 14.6866 37.5759C14.6866 35.5531 15.4733 33.6122 16.8749 32.1769C17.5679 31.4657 18.393 30.9018 19.3022 30.5177C20.2114 30.1337 21.1866 29.9373 22.1711 29.94C22.6425 29.9407 23.1129 29.9862 23.576 30.0759L30.0291 23.4919L32.0398 21.4416C27.978 19.2272 23.517 19.4653 20.8915 22.1428C20.3127 22.7332 19.8408 23.4228 19.4976 24.18C18.9591 25.3769 18.0876 26.387 16.9907 27.0856C15.8938 27.7842 14.6196 28.1407 13.3257 28.1109C11.7443 27.9971 10.157 28.222 8.66634 28.7711C7.17573 29.3201 5.81498 30.1811 4.67205 31.2984C-0.368767 36.45 0.783577 46.0106 7.25237 52.6116C10.5936 56.1888 15.1852 58.2846 20.0342 58.4456C21.5263 58.4908 23.0121 58.2303 24.4033 57.6796C25.7944 57.129 27.0624 56.2994 28.1319 55.2403C29.2048 54.0936 30.0357 52.7358 30.5735 51.2505C31.1112 49.7651 31.3445 48.1836 31.2589 46.6031C31.2305 45.2863 31.5849 43.9902 32.2775 42.8772C32.9702 41.7642 33.9705 40.8838 35.1529 40.3462C35.9436 39.9903 36.6625 39.4884 37.2732 38.8659C39.895 36.1903 40.131 31.6472 37.9711 27.5138L35.9706 29.5547L35.9743 29.5566ZM17.6548 51.4059L17.1625 51.9084C16.9065 52.1711 16.6015 52.3794 16.2655 52.521C15.9295 52.6627 15.5691 52.7349 15.2054 52.7334C14.8414 52.735 14.4807 52.6629 14.1443 52.5212C13.808 52.3796 13.5028 52.1713 13.2464 51.9084L8.11248 46.6687C7.59704 46.1408 7.30778 45.4271 7.30778 44.6831C7.30778 43.9392 7.59704 43.2254 8.11248 42.6975L8.60476 42.195C9.13265 41.6832 9.83398 41.3978 10.5633 41.3978C11.2926 41.3978 11.9939 41.6832 12.5218 42.195L17.6567 47.4347C18.1732 47.9621 18.4631 48.6763 18.4627 49.4207C18.4624 50.1651 18.1718 50.879 17.6548 51.4059Z" fill="white"/>
<path d="M36.173 19.8387L39.5138 23.2484L44.4035 18.26L42.7801 16.6034L41.0626 14.8503L36.173 19.8387Z" fill="white"/>
<path d="M54.1996 13.6134L53.1164 12.5081L53.3376 12.2812C53.5759 12.0374 53.7097 11.7077 53.7097 11.3639C53.7097 11.0202 53.5759 10.6904 53.3376 10.4466L48.695 5.71031C48.4546 5.47514 48.134 5.34377 47.8004 5.34377C47.4668 5.34377 47.1461 5.47514 46.9057 5.71031L46.6706 5.95031L45.5726 4.83C45.4877 4.74035 45.3861 4.66879 45.2737 4.6195C45.1613 4.57021 45.0404 4.54418 44.918 4.54292C44.7956 4.54167 44.6742 4.56522 44.5608 4.61219C44.4474 4.65917 44.3444 4.72863 44.2577 4.81653C44.1711 4.90442 44.1025 5.00899 44.056 5.12414C44.0094 5.23928 43.9859 5.36269 43.9868 5.48717C43.9877 5.61165 44.013 5.7347 44.0611 5.84915C44.1093 5.96359 44.1794 6.06714 44.2673 6.15375L45.3735 7.27875L43.4468 9.23906L42.5111 8.28469C42.4262 8.19503 42.3246 8.12347 42.2122 8.07419C42.0998 8.0249 41.9788 7.99887 41.8564 7.99761C41.734 7.99636 41.6126 8.01991 41.4993 8.06688C41.3859 8.11386 41.2829 8.18332 41.1962 8.27122C41.1095 8.35911 41.0409 8.46368 40.9944 8.57883C40.9479 8.69397 40.9244 8.81738 40.9253 8.94186C40.9262 9.06634 40.9514 9.18939 40.9996 9.30383C41.0477 9.41828 41.1178 9.52183 41.2057 9.60844L42.3359 10.7616L40.4728 13.6134L40.7144 13.86L43.0762 16.2703L45.5966 18.8438L48.4083 16.9312L49.5026 18.0478C49.5875 18.1375 49.6891 18.209 49.8015 18.2583C49.9139 18.3076 50.0349 18.3336 50.1573 18.3349C50.2797 18.3361 50.4011 18.3126 50.5145 18.2656C50.6278 18.2186 50.7308 18.1492 50.8175 18.0613C50.9042 17.9734 50.9728 17.8688 51.0193 17.7537C51.0658 17.6385 51.0893 17.5151 51.0884 17.3906C51.0875 17.2662 51.0623 17.1431 51.0141 17.0287C50.966 16.9142 50.8959 16.8107 50.808 16.7241L49.8972 15.795L51.8147 13.8384L52.8942 14.94C53.0678 15.111 53.3005 15.2059 53.5423 15.2041C53.784 15.2023 54.0154 15.1041 54.1865 14.9305C54.3577 14.7569 54.455 14.5219 54.4574 14.2761C54.4599 14.0303 54.3673 13.7933 54.1996 13.6163V13.6134Z" fill="white"/>
</svg>
