<svg width="59" height="60" viewBox="0 0 59 60" fill="none" xmlns="http://www.w3.org/2000/svg">
<path d="M10.5611 43.7536C10.6454 43.7536 10.7288 43.7784 10.8004 43.8249L10.8677 43.8786L15.9927 49.1081C16.0725 49.1895 16.1187 49.3022 16.1187 49.4206C16.1187 49.5094 16.0921 49.5944 16.0455 49.6657L15.9927 49.7321L15.4996 50.2341C15.4601 50.2744 15.4134 50.3065 15.3629 50.3279C15.3123 50.3492 15.2579 50.3601 15.2037 50.3601C15.1494 50.3601 15.0951 50.3492 15.0445 50.3279C14.9939 50.3065 14.9473 50.2744 14.9078 50.2341H14.9068L9.77301 44.9948C9.69333 44.9135 9.64708 44.8017 9.64703 44.6833C9.64703 44.5648 9.69322 44.4522 9.77301 44.3708L10.2554 43.8786C10.3394 43.7978 10.4489 43.7537 10.5611 43.7536ZM22.1685 32.3161C22.8429 32.3161 23.5111 32.4513 24.1343 32.7146C24.7574 32.9778 25.3243 33.3634 25.8013 33.8503V33.8513C26.7672 34.8404 27.3111 36.1794 27.3111 37.5769C27.3111 38.9744 26.7672 40.3133 25.8013 41.3025C25.3248 41.7905 24.7586 42.1782 24.1353 42.4421C23.512 42.706 22.8432 42.8415 22.1685 42.8415C21.494 42.8415 20.8259 42.7059 20.2027 42.4421C19.5793 42.1782 19.0123 41.7906 18.5357 41.3025C17.57 40.3133 17.0269 38.9743 17.0269 37.5769C17.0269 36.2668 17.5044 35.008 18.3599 34.0407L18.5357 33.8513C19.0128 33.3641 19.5794 32.9779 20.2027 32.7146C20.826 32.4513 21.4941 32.3162 22.1685 32.3161ZM33.3209 28.8913L28.9752 33.3259C28.3184 32.2277 27.4127 31.3034 26.3316 30.6335L30.6802 26.196L33.3209 28.8913Z" stroke="white"/>
<path d="M38.5119 23.5754L34.3234 27.8488L31.6828 25.1545L35.8713 20.881L38.5119 23.5754Z" stroke="white"/>
<path d="M21.2489 22.4926C23.5479 20.1484 27.4488 19.7724 31.205 21.5775L29.6718 23.142L23.4012 29.5385C22.9946 29.4741 22.5836 29.4404 22.1718 29.4398H22.1708C21.1194 29.4372 20.0778 29.6471 19.1073 30.057C18.1364 30.4671 17.2556 31.069 16.5165 31.8275C15.0231 33.3571 14.1865 35.4237 14.1864 37.5756C14.1864 39.7278 15.0238 41.795 16.5175 43.3246C17.2575 44.0816 18.138 44.6828 19.1083 45.0932C20.0785 45.5036 21.1194 45.7152 22.1708 45.7152C23.2221 45.7152 24.263 45.5036 25.2333 45.0932C26.0823 44.734 26.8624 44.2288 27.5399 43.601L27.8241 43.3246C28.7447 42.3837 29.4243 41.2289 29.8055 39.9613C30.1613 38.7781 30.2433 37.5296 30.0536 36.31L36.3309 29.9066L36.8085 29.4203L36.8046 29.4174L37.8319 28.3686C39.5868 32.1934 39.2134 36.1714 36.9159 38.516C36.3486 39.0941 35.6814 39.5599 34.9481 39.89L34.9462 39.891C33.6732 40.4697 32.5977 41.417 31.8534 42.6127C31.1092 43.8084 30.7282 45.2004 30.7587 46.6137L30.7596 46.6225V46.6303C30.8416 48.1438 30.6182 49.6584 30.1034 51.0805C29.5892 52.5006 28.7948 53.7979 27.7704 54.894C26.7506 55.9013 25.5434 56.6902 24.2196 57.2143C22.8918 57.7399 21.4735 57.9887 20.0497 57.9457H20.0507C15.3358 57.7891 10.8695 55.7511 7.61804 52.2699L7.60925 52.2611C1.25167 45.7734 0.252981 36.5398 5.02136 31.6557C6.11411 30.5874 7.41487 29.7652 8.83875 29.2406C10.2628 28.7161 11.7795 28.5011 13.2899 28.6098L13.3016 28.6107H13.3143C14.7078 28.6428 16.0797 28.2588 17.2596 27.5072C18.4394 26.7557 19.3759 25.6699 19.954 24.3852L19.953 24.3842C20.2721 23.6807 20.7117 23.0405 21.2489 22.4926ZM10.5634 40.8979C9.75692 40.8979 8.9808 41.1937 8.37585 41.726L8.25671 41.8363L8.24792 41.8451L7.75574 42.3481H7.75476C7.14731 42.9702 6.80752 43.8098 6.8075 44.683C6.8075 45.5563 7.14729 46.3958 7.75476 47.018L7.75574 47.019L12.8885 52.2563V52.2572C13.1912 52.5675 13.5519 52.8141 13.9501 52.9818C14.3469 53.149 14.773 53.2341 15.203 53.2328V53.2338L15.205 53.2328H15.2069C15.637 53.234 16.063 53.1491 16.4598 52.9818C16.8577 52.8141 17.218 52.5674 17.5204 52.2572L17.5194 52.2563L18.0116 51.7563C18.6211 51.1351 18.9623 50.2952 18.9628 49.4213C18.9632 48.5472 18.6225 47.7062 18.0135 47.0844L12.8788 41.8451L12.87 41.8363L12.7509 41.726C12.1459 41.1937 11.3698 40.8979 10.5634 40.8979Z" stroke="white"/>
<path d="M42.423 16.9529V16.9538L43.7023 18.2595L39.5138 22.5329L36.8732 19.8386L41.0616 15.5642L42.423 16.9529Z" stroke="white"/>
<path d="M44.9133 5.04288C44.9678 5.04349 45.0219 5.05496 45.0724 5.07706C45.1232 5.09931 45.1699 5.13238 45.2092 5.17374L45.216 5.1796L46.3137 6.30069L46.6711 6.66495L47.0275 6.29971L47.2599 6.06241C47.4071 5.92098 47.6007 5.84375 47.8 5.84366C47.9992 5.84366 48.1928 5.92113 48.34 6.06241L52.9797 10.7958C53.1258 10.9453 53.2092 11.1498 53.2092 11.3642C53.2091 11.5784 53.1258 11.7821 52.9797 11.9315V11.9325L52.758 12.1591L52.4172 12.5087L52.759 12.8583L53.7668 13.8866L53.8361 13.9599C53.9139 14.042 53.9584 14.154 53.9572 14.2714C53.956 14.3886 53.9094 14.4987 53.8303 14.579C53.7513 14.6591 53.6462 14.7032 53.5383 14.704C53.4574 14.7045 53.3782 14.6807 53.3098 14.6357L53.2453 14.5839L52.1721 13.4882L51.8146 13.1239L51.4572 13.4882L49.5402 15.4452L49.1974 15.7948L49.5402 16.1454L50.4514 17.0741L50.4572 17.08C50.4978 17.12 50.5302 17.1686 50.5529 17.2226C50.5756 17.2766 50.5877 17.3352 50.5881 17.3944C50.5885 17.4536 50.5777 17.5121 50.5558 17.5663C50.5339 17.6207 50.5012 17.6692 50.4611 17.7099C50.4212 17.7504 50.3745 17.7824 50.3234 17.8036C50.2722 17.8249 50.2171 17.8354 50.1623 17.8349C50.1075 17.8343 50.053 17.823 50.0021 17.8007C49.9513 17.7784 49.9047 17.7455 49.8654 17.704L49.8596 17.6982L48.7658 16.581L48.4728 16.2831L48.1271 16.5175L45.6613 18.1942L43.4338 15.9208L41.1105 13.5497L42.7541 11.0351L42.9748 10.6982L42.6926 10.412L41.5627 9.2587L41.5568 9.25186L41.5021 9.18643C41.486 9.16259 41.4715 9.13728 41.4601 9.11026C41.4374 9.05628 41.4254 8.99762 41.425 8.93839C41.4246 8.87923 41.4363 8.8208 41.4582 8.76651C41.4801 8.71216 41.5119 8.66262 41.5519 8.62198C41.5919 8.58142 41.6394 8.55044 41.6906 8.52921C41.7418 8.50797 41.7969 8.49739 41.8517 8.49796C41.9063 8.49857 41.9603 8.51 42.0109 8.53214C42.0618 8.55443 42.1084 8.58736 42.1476 8.62881L42.1545 8.63467L43.09 9.58878L43.4465 9.95303L43.8029 9.58975L45.7297 7.62881L46.0744 7.27823L45.7297 6.92862L44.6242 5.80362L44.6183 5.79776L44.5637 5.73135C44.5476 5.70755 44.533 5.68215 44.5217 5.65518C44.499 5.60122 44.4869 5.5425 44.4865 5.48331C44.4861 5.42415 44.4978 5.36571 44.5197 5.31143C44.5416 5.25722 44.5735 5.20845 44.6135 5.16788C44.6535 5.12728 44.7009 5.09537 44.7521 5.07413C44.8034 5.0529 44.8584 5.04232 44.9133 5.04288Z" stroke="white"/>
</svg>
